<?xml version="1.0" encoding="UTF-8" standalone="no" ?>
<!DOCTYPE svg PUBLIC "-//W3C//DTD SVG 1.1//EN" "http://www.w3.org/Graphics/SVG/1.1/DTD/svg11.dtd">
<svg xmlns="http://www.w3.org/2000/svg" xmlns:xlink="http://www.w3.org/1999/xlink" version="1.1" width="1080" height="1080" viewBox="0 0 1080 1080" xml:space="preserve">
<desc>Created with Fabric.js 5.2.4</desc>
<defs>
</defs>
<g transform="matrix(1 0 0 1 540 540)" id="d150aaf9-1b0d-4f64-b802-4d0a95569acb"  >
</g>
<g transform="matrix(1 0 0 1 540 540)" id="5e583ee6-0ea0-4d10-951e-2e60c6f6fe8e"  >
<rect style="stroke: none; stroke-width: 1; stroke-dasharray: none; stroke-linecap: butt; stroke-dashoffset: 0; stroke-linejoin: miter; stroke-miterlimit: 4; fill: rgb(255,255,255); fill-rule: nonzero; opacity: 1; visibility: hidden;" vector-effect="non-scaling-stroke"  x="-540" y="-540" rx="0" ry="0" width="1080" height="1080" />
</g>
<g transform="matrix(1 0 0 1 540 540)"  >
<path style="stroke: none; stroke-width: 1; stroke-dasharray: none; stroke-linecap: butt; stroke-dashoffset: 0; stroke-linejoin: miter; stroke-miterlimit: 4; fill: rgb(254,254,254); fill-opacity: 0; fill-rule: nonzero; opacity: 1;" vector-effect="non-scaling-stroke"  transform=" translate(-210.5, -166.5)" d="M 0 0 C 138.93 0 277.86 0 421 0 C 421 109.89 421 219.78 421 333 C 282.07 333 143.14 333 0 333 C 0 223.11 0 113.22 0 0 Z" stroke-linecap="round" />
</g>
<g transform="matrix(1 0 0 1 536.06 469.6)"  >
<path style="stroke: none; stroke-width: 1; stroke-dasharray: none; stroke-linecap: butt; stroke-dashoffset: 0; stroke-linejoin: miter; stroke-miterlimit: 4; fill: rgb(140,138,166); fill-rule: nonzero; opacity: 1;" vector-effect="non-scaling-stroke"  transform=" translate(10.88, -62.66)" d="M 0 0 C 5.71772733 2.8440509 10.03849086 7.12884197 14.5625 11.5625 C 15.337146 12.30862549 15.337146 12.30862549 16.12744141 13.06982422 C 45.38232344 41.26342299 45.38232344 41.26342299 48.1875 58.375 C 47.33940546 70.66025518 37.15917354 80.70181082 28.5625 88.5625 C 19.06378185 96.74694674 7.0862633 104.80882168 -5.97265625 104.046875 C -19.6484037 101.3594064 -32.35559079 90.97685274 -40.33203125 79.94140625 C -45.50773646 71.66783369 -47.73296684 63.82889126 -46.0078125 54.15234375 C -42.33738661 39.85580835 -31.91060252 27.98743347 -19.4375 20.5625 C -12.03610828 16.74679166 -5.53890497 16.77389512 2.375 19 C 14.50730724 23.36028697 24.12491779 33.62796675 30 44.9375 C 33.12622522 52.1903425 33.74354512 58.94192658 31.125 66.5 C 26.70360253 76.5104175 17.85697728 84.68861566 7.70703125 88.6875 C -0.27410773 90.90833867 -8.26592718 90.58224973 -15.8125 87.125 C -23.54502544 82.73292555 -29.57885751 76.36972105 -32.8046875 68 C -35.07117506 59.26982569 -33.68057078 52.14766669 -29.34765625 44.33203125 C -25.26537925 38.41314701 -19.37763435 32.78334299 -12.4375 30.5625 C -3.96106922 29.49958249 3.70786565 30.88897401 10.6015625 36.10546875 C 16.8373883 41.90345998 20.17584698 48.51608419 20.7265625 57.0390625 C 20.35099438 62.8156579 17.79403323 67.14623679 14.0625 71.4375 C 7.56967741 76.9563992 3.34359648 77.92531096 -5.203125 77.83984375 C -11.06527654 77.33717134 -14.44860718 74.87689554 -18.3125 70.5 C -22.31758268 64.96356217 -22.0605565 59.17918451 -21.4375 52.5625 C -19.8125 49.125 -19.8125 49.125 -17.4375 46.5625 C -16.6125 45.61375 -15.7875 44.665 -14.9375 43.6875 C -11.15265907 40.68673098 -6.98239883 41.04595021 -2.33984375 41.09375 C 1.74185472 41.75297452 4.36134104 43.28010324 7.1796875 46.2890625 C 10.25258621 50.92704005 11.03126036 54.06437995 10.25 59.58203125 C 9.45032498 61.88564053 8.39264076 62.98599288 6.5625 64.5625 C 6.7275 64.046875 6.8925 63.53125 7.0625 63 C 7.94757129 58.68527748 8.15673922 54.98207147 6.4375 50.875 C 3.60901022 47.38652928 1.00557411 44.86460056 -3.6171875 44.29296875 C -7.9988756 44.44787692 -10.86798238 45.37538668 -14 48.5 C -16.81605424 52.29385085 -17.14045676 55.62746753 -16.82421875 60.265625 C -16.05366126 64.8422695 -14.23223896 66.86237282 -10.8125 69.875 C -6.48193133 72.04028433 -3.19025441 72.38906598 1.5625 71.5625 C 5.85404647 69.94180037 9.23128035 67.57737828 11.5625 63.5625 C 13.00534437 59.23396689 13.43503325 54.9906354 11.87890625 50.66015625 C 9.03528675 45.26789853 5.1889042 41.71155184 -0.4375 39.25 C -5.55294461 38.07771061 -8.82205567 37.95644113 -13.4375 40.5625 C -18.56447876 44.00672757 -22.47829103 48.68487309 -24.4375 54.5625 C -24.86875578 62.18135211 -23.18101854 67.57068711 -18.4375 73.5625 C -13.543885 77.8821725 -9.8078226 80.29816097 -3.25 80.8125 C 6.34964391 80.18301515 13.48311771 75.99689288 20.015625 69.0078125 C 23.83582732 63.60034301 23.30090527 56.8703663 22.5625 50.5625 C 20.35593458 41.68962073 11.72096377 33.24935373 4.3125 28.375 C -1.63848436 25.50502173 -8.01476555 25.52681544 -14.4375 26.5625 C -18.00082479 28.02505868 -20.5917269 29.9924801 -23.4375 32.5625 C -24.12328125 33.14257812 -24.8090625 33.72265625 -25.515625 34.3203125 C -32.88480918 41.04258356 -38.52518321 49.63581314 -39.67578125 59.6328125 C -40.00527733 68.75465125 -37.13491325 76.04462078 -31.125 82.875 C -29.58523289 84.45990686 -28.02417875 86.02455883 -26.4375 87.5625 C -25.84710938 88.1503125 -25.25671875 88.738125 -24.6484375 89.34375 C -18.32294032 95.21956728 -11.60549057 98.83838006 -2.875 99.0625 C 12.93000555 98.2888284 24.65857879 88.25973569 35.27734375 77.25 C 38.35673551 73.62842473 40.60750569 69.88056996 42.5625 65.5625 C 42.8925 64.9025 43.2225 64.2425 43.5625 63.5625 C 44.5147648 55.16383669 42.78464506 49.79228989 37.73022461 43.15722656 C 32.0372732 36.1311362 25.96560974 29.63099956 19.5625 23.25 C 18.61953664 22.29126639 17.67682767 21.3322825 16.734375 20.37304688 C 6.4738163 9.75355501 6.4738163 9.75355501 -7 5.125 C -7.80566406 5.06441406 -8.61132812 5.00382812 -9.44140625 4.94140625 C -18.32976661 6.78397378 -24.98059801 14.6986457 -31.0625 20.9375 C -31.86945313 21.74960937 -32.67640625 22.56171875 -33.5078125 23.3984375 C -40.48670213 30.46796206 -47.00683123 37.85074 -53.1875 45.625 C -53.65542969 46.19798828 -54.12335938 46.77097656 -54.60546875 47.36132812 C -58.40810246 52.14963035 -61.00932561 56.72584469 -61.9375 62.875 C -59.48296314 80.97720936 -39.38644492 96.6705576 -27.1875 109.0625 C -26.44322754 109.82820313 -25.69895508 110.59390625 -24.93212891 111.3828125 C -19.78832976 116.55746758 -14.67282647 121.59303269 -7.3828125 123.26171875 C 5.58350353 123.20784209 13.46070096 115.29600069 22.73730469 107.16113281 C 24.72630042 105.41903221 26.72550421 103.6891661 28.7265625 101.9609375 C 32.34456675 98.83501222 35.95521524 95.70078784 39.5625 92.5625 C 40.2225 92.8925 40.8825 93.2225 41.5625 93.5625 C 40.11032324 95.06846108 38.65057139 96.56712104 37.1875 98.0625 C 36.37539062 98.8978125 35.56328125 99.733125 34.7265625 100.59375 C 32.5625 102.5625 32.5625 102.5625 30.5625 102.5625 C 30.33433594 103.11421875 30.10617188 103.6659375 29.87109375 104.234375 C 24.17210794 114.37346617 10.61907331 125.28647828 -0.4375 128.5625 C -8.4396973 130.07558604 -14.83958815 126.91517649 -21.4375 122.5625 C -25.50643837 119.3022722 -29.21709275 115.66218617 -32.93408203 112.01269531 C -35.05281538 109.96896746 -37.27637469 108.05332787 -39.5 106.125 C -51.59633868 95.24614996 -68.82205219 79.63733456 -69.9375 62.5 C -68.2803447 49.44990201 -58.42719571 39.37857712 -49.80859375 30.1171875 C -47.79724752 27.95010277 -45.85631544 25.74840021 -43.9375 23.5 C -17.47720649 -6.73150356 -17.47720649 -6.73150356 0 0 Z" stroke-linecap="round" />
</g>
<g transform="matrix(1 0 0 1 568.88 621.87)"  >
<path style="stroke: none; stroke-width: 1; stroke-dasharray: none; stroke-linecap: butt; stroke-dashoffset: 0; stroke-linejoin: miter; stroke-miterlimit: 4; fill: rgb(138,136,164); fill-rule: nonzero; opacity: 1;" vector-effect="non-scaling-stroke"  transform=" translate(7.02, -41.35)" d="M 0 0 C 1.98186479 1.22017795 3.78447558 2.51522547 5.59375 3.9765625 C 6.41875 4.5746875 7.24375 5.1728125 8.09375 5.7890625 C 8.58875 6.1809375 9.08375 6.5728125 9.59375 6.9765625 C 9.59375 4.9965625 9.59375 3.0165625 9.59375 0.9765625 C 12.56375 0.9765625 15.53375 0.9765625 18.59375 0.9765625 C 18.71012049 9.27871283 18.79870411 17.58051667 18.85281086 25.88328362 C 18.87879291 29.73954154 18.91397818 33.59523736 18.97094727 37.45117188 C 19.02567981 41.17948982 19.05525598 44.90727062 19.06813622 48.63595963 C 19.07730294 50.05123464 19.095202 51.46648361 19.12240028 52.88152695 C 19.29577687 62.28442061 18.68066447 70.3210887 12.15058899 77.58102417 C 6.31492656 82.78677852 0.79974093 84.49741527 -6.78125 84.3515625 C -7.53567383 84.34141113 -8.29009766 84.33125977 -9.06738281 84.32080078 C -15.02768224 84.15416042 -20.34388518 83.88025557 -24.9140625 79.546875 C -28.48483035 75.44559307 -30.70218771 72.45141016 -30.40625 66.9765625 C -28.94832116 66.92256514 -27.48982288 66.88377073 -26.03125 66.8515625 C -25.21914062 66.82835937 -24.40703125 66.80515625 -23.5703125 66.78125 C -21.40625 66.9765625 -21.40625 66.9765625 -19.40625 68.9765625 C -19.40625 69.9665625 -19.40625 70.9565625 -19.40625 71.9765625 C -18.74625 71.9765625 -18.08625 71.9765625 -17.40625 71.9765625 C -17.40625 72.6365625 -17.40625 73.2965625 -17.40625 73.9765625 C -11.10606595 75.84551662 -4.07982732 75.82085008 2.15625 73.8515625 C 5.3232442 71.41541311 6.34493375 69.79238993 7.59375 65.9765625 C 7.81913704 62.62580843 7.77260792 59.32849245 7.59375 55.9765625 C 6.68625 56.6159375 5.77875 57.2553125 4.84375 57.9140625 C -1.0276786 61.64016142 -6.94670957 61.66438992 -13.7109375 60.62109375 C -21.45759288 58.62411857 -25.58393277 53.34121646 -29.79296875 46.83203125 C -34.16743699 38.06774576 -33.75202105 26.17618196 -31.7109375 16.7734375 C -29.22206223 9.95517416 -25.05939876 4.2772963 -18.78125 0.5390625 C -12.93079889 -2.03872247 -5.93217246 -2.52309933 0 0 Z" stroke-linecap="round" />
</g>
<g transform="matrix(1 0 0 1 429.46 600.17)"  >
<path style="stroke: none; stroke-width: 1; stroke-dasharray: none; stroke-linecap: butt; stroke-dashoffset: 0; stroke-linejoin: miter; stroke-miterlimit: 4; fill: rgb(139,137,165); fill-rule: nonzero; opacity: 1;" vector-effect="non-scaling-stroke"  transform=" translate(-38.96, -40.68)" d="M 0 0 C 5.28 0 10.56 0 16 0 C 22.32065453 17.3957837 28.35430712 34.86372915 34.15136719 52.44042969 C 34.40081589 53.19542755 34.65026459 53.95042542 34.90727234 54.728302 C 35.3772092 56.15169608 35.84571745 57.57556288 36.31257629 58.99996948 C 37.48598219 62.56809292 37.48598219 62.56809292 39 66 C 39.28721924 65.12786865 39.57443848 64.2557373 39.87036133 63.35717773 C 40.94699365 60.09300556 42.02640881 56.8297804 43.10766602 53.56713867 C 43.57328689 52.16027657 44.03782582 50.75305586 44.5012207 49.34545898 C 45.17108103 47.31136211 45.84494301 45.27862685 46.51953125 43.24609375 C 46.92276611 42.02591553 47.32600098 40.8057373 47.74145508 39.54858398 C 49.01874027 35.94716006 50.47646501 32.50257073 52 29 C 52.65795343 27.01059751 53.28347041 25.01015366 53.875 23 C 55.41303975 17.89299542 57.01229214 12.81328235 58.6875 7.75 C 58.90196777 7.09386719 59.11643555 6.43773437 59.33740234 5.76171875 C 60.88141774 1.11858226 60.88141774 1.11858226 62 0 C 64.51136104 -0.09975032 66.98903415 -0.13882183 69.5 -0.125 C 70.20253906 -0.12886719 70.90507812 -0.13273438 71.62890625 -0.13671875 C 76.87338622 -0.12661378 76.87338622 -0.12661378 78 1 C 78.1003188 3.45905221 78.1361818 5.89003428 78.12939453 8.34960938 C 78.13202301 9.50321709 78.13202301 9.50321709 78.13470459 10.68013 C 78.1391234 13.23469263 78.13618502 15.78918661 78.1328125 18.34375 C 78.13348553 20.11112481 78.13445555 21.87849953 78.13571167 23.64587402 C 78.13718868 27.35490803 78.13503398 31.063918 78.13037109 34.77294922 C 78.1246738 39.53822493 78.12795279 44.30344432 78.13394356 49.06871796 C 78.13754908 52.71971057 78.13641062 56.37068973 78.13381577 60.02168274 C 78.13314647 61.77924099 78.133975 63.53680045 78.13629532 65.2943573 C 78.13882171 67.74640154 78.13498146 70.19835331 78.12939453 72.65039062 C 78.13141876 73.38393265 78.13344299 74.11747467 78.13552856 74.87324524 C 78.11426264 79.88573736 78.11426264 79.88573736 77 81 C 75.50261876 81.0979057 74.00057108 81.12974864 72.5 81.125 C 71.6853125 81.12757813 70.870625 81.13015625 70.03125 81.1328125 C 68 81 68 81 67 80 C 66.87630675 78.0064857 66.8220361 76.0086353 66.79467773 74.01147461 C 66.7647599 72.08959572 66.7647599 72.08959572 66.73423767 70.12889099 C 66.71725203 68.72004316 66.70037327 67.31119405 66.68359375 65.90234375 C 66.66303085 64.46887095 66.64203456 63.03540431 66.62062073 61.60194397 C 66.56533141 57.8224688 66.51595255 54.0429383 66.46777344 50.2633667 C 66.41760835 46.40925145 66.36189629 42.55521691 66.30664062 38.70117188 C 66.19897521 31.13418286 66.09754903 23.5671269 66 16 C 65.74605469 16.92941406 65.49210937 17.85882813 65.23046875 18.81640625 C 63.4883897 25.07353663 61.68745969 31.07700451 59 37 C 58.00121 39.73911519 57.09399325 42.50651065 56.1875 45.27734375 C 55.93250732 46.04752335 55.67751465 46.81770294 55.41479492 47.61122131 C 54.60696714 50.05236893 53.80319097 52.49482325 53 54.9375 C 52.19629207 57.37642957 51.39166161 59.81504486 50.58520508 62.25306702 C 50.08593074 63.76294793 49.58825885 65.2733601 49.0925293 66.78440857 C 47.51188949 71.57114456 45.79538059 76.28944299 44 81 C 42.39815374 81.1352403 40.79303374 81.23210847 39.1875 81.3125 C 38.29417969 81.37050781 37.40085938 81.42851562 36.48046875 81.48828125 C 34 81 34 81 32.48681641 78.91210938 C 30.8131352 75.63400273 29.77308241 72.44882922 28.73046875 68.91796875 C 26.08489294 60.15035289 23.15538365 51.49216631 20.1784668 42.83227539 C 19.3005609 40.27775981 18.42643112 37.72197353 17.55273438 35.16601562 C 16.98980097 33.5233629 16.42665788 31.88078201 15.86328125 30.23828125 C 15.60492996 29.48307693 15.34657867 28.72787262 15.08039856 27.94978333 C 14.71442818 26.88663155 14.71442818 26.88663155 14.34106445 25.80200195 C 14.1296431 25.18629837 13.91822174 24.57059479 13.70039368 23.93623352 C 12.85641893 21.60307112 11.92146362 19.30365904 11 17 C 10.67 38.12 10.34 59.24 10 81 C 7.03 81 4.06 81 1 81 C -0.71987206 79.28012794 -0.11974788 77.09122971 -0.12442017 74.79867554 C -0.12082489 74.05421173 -0.11722961 73.30974792 -0.11352539 72.54272461 C -0.11367142 71.76229294 -0.11381744 70.98186127 -0.1139679 70.17778015 C -0.11326858 67.5859402 -0.10547536 64.99417122 -0.09765625 62.40234375 C -0.09579213 60.6101536 -0.0943682 58.81796294 -0.09336853 57.02577209 C -0.08954284 52.29929203 -0.07971212 47.57284248 -0.06866455 42.84637451 C -0.05845153 38.0271445 -0.05387115 33.20790958 -0.04882812 28.38867188 C -0.03808989 18.92576565 -0.02049268 9.46289013 0 0 Z" stroke-linecap="round" />
</g>
<g transform="matrix(1 0 0 1 657.39 611.46)"  >
<path style="stroke: none; stroke-width: 1; stroke-dasharray: none; stroke-linecap: butt; stroke-dashoffset: 0; stroke-linejoin: miter; stroke-miterlimit: 4; fill: rgb(139,137,165); fill-rule: nonzero; opacity: 1;" vector-effect="non-scaling-stroke"  transform=" translate(-20.6, -30.06)" d="M 0 0 C 1.37478516 0.01740234 1.37478516 0.01740234 2.77734375 0.03515625 C 3.69644531 0.04417969 4.61554688 0.05320313 5.5625 0.0625 C 6.27277344 0.07410156 6.98304688 0.08570313 7.71484375 0.09765625 C 7.71848938 0.66506531 7.72213501 1.23247437 7.72589111 1.81707764 C 7.76769821 7.72221857 7.83703061 13.62658095 7.92236328 19.53125 C 7.95059085 21.73494684 7.97179645 23.93874525 7.98583984 26.14257812 C 8.00724422 29.31042557 8.05388273 32.47704933 8.10546875 35.64453125 C 8.10669739 36.63007996 8.10792603 37.61562866 8.10919189 38.63104248 C 8.15034745 44.0365085 8.15034745 44.0365085 10.62792969 48.68847656 C 14.93478468 51.59666176 18.61051981 51.69158264 23.71484375 51.09765625 C 28.67414231 48.85193615 30.61687882 46.08320508 32.87878418 41.36767578 C 34.29066064 37.53423227 34.31808992 33.83460396 34.32421875 29.78515625 C 34.340755 28.93083008 34.35729126 28.07650391 34.37432861 27.19628906 C 34.42249195 24.49666937 34.44410825 21.79761159 34.46484375 19.09765625 C 34.49303003 17.25518054 34.52296114 15.41273065 34.5546875 13.5703125 C 34.62824186 9.07947342 34.67800912 4.5889405 34.71484375 0.09765625 C 38.01484375 0.09765625 41.31484375 0.09765625 44.71484375 0.09765625 C 44.73797226 7.64263858 44.75576144 15.18761726 44.76665592 22.73262691 C 44.77188364 26.2357451 44.77897925 29.7388391 44.7902832 33.24194336 C 44.80318581 37.26546466 44.80807287 41.28896039 44.8125 45.3125 C 44.81766129 46.57601791 44.82282257 47.83953583 44.82814026 49.14134216 C 44.82821579 50.30247025 44.82829132 51.46359833 44.82836914 52.65991211 C 44.83058975 53.68805527 44.83281036 54.71619843 44.83509827 55.77549744 C 44.71484375 58.09765625 44.71484375 58.09765625 43.71484375 59.09765625 C 41.04425524 59.23880786 38.39052137 59.14012732 35.71484375 59.09765625 C 35.71484375 56.45765625 35.71484375 53.81765625 35.71484375 51.09765625 C 35.23015625 51.57976562 34.74546875 52.061875 34.24609375 52.55859375 C 27.49868023 58.91673341 22.27559657 60.34818035 13.15234375 60.09765625 C 7.9915206 59.58336796 4.8619576 58.60349878 1.08203125 55.05859375 C -3.34244785 48.71262658 -3.71160121 43.13111621 -3.61328125 35.60546875 C -3.61140808 34.61892303 -3.60953491 33.63237732 -3.60760498 32.61593628 C -3.60091217 30.54340199 -3.58705325 28.47087974 -3.56640625 26.3984375 C -3.53505259 23.21212139 -3.52541213 20.02629934 -3.51953125 16.83984375 C -3.51036865 14.82421266 -3.49999527 12.80858663 -3.48828125 10.79296875 C -3.48403137 9.83576935 -3.47978149 8.87856995 -3.47540283 7.8923645 C -3.46579529 7.01410004 -3.45618774 6.13583557 -3.44628906 5.23095703 C -3.43946106 4.45487091 -3.43263306 3.67878479 -3.42559814 2.87918091 C -3.2096525 0.1398808 -2.74360053 0.11724789 0 0 Z" stroke-linecap="round" />
</g>
<g transform="matrix(1 0 0 1 507.5 611.7)"  >
<path style="stroke: none; stroke-width: 1; stroke-dasharray: none; stroke-linecap: butt; stroke-dashoffset: 0; stroke-linejoin: miter; stroke-miterlimit: 4; fill: rgb(139,137,165); fill-rule: nonzero; opacity: 1;" vector-effect="non-scaling-stroke"  transform=" translate(-24.01, -30.2)" d="M 0 0 C 3.3 0 6.6 0 10 0 C 10.01458252 1.27117676 10.02916504 2.54235352 10.04418945 3.85205078 C 10.10229807 8.58231292 10.17953048 13.3121053 10.26245117 18.04199219 C 10.29564141 20.0865108 10.32369163 22.13111974 10.34643555 24.17578125 C 10.38008993 27.12018206 10.43241166 30.06375954 10.48828125 33.0078125 C 10.49467117 33.9174173 10.5010611 34.82702209 10.50764465 35.76419067 C 10.62596661 40.90756899 11.1500571 44.54179607 14 49 C 16.93566674 51.39202475 20.25106061 51.41733734 23.97265625 51.3203125 C 28.16420229 50.65806438 30.94009625 48.13561116 33.75 45.125 C 36.94819582 39.68806711 37.32303978 34.45375191 37.4140625 28.3203125 C 37.43342865 27.50754852 37.4527948 26.69478455 37.4727478 25.85739136 C 37.53217883 23.28003188 37.57878181 20.70262685 37.625 18.125 C 37.66321343 16.36977298 37.70226709 14.61456403 37.7421875 12.859375 C 37.83784999 8.57306476 37.92201449 4.28666681 38 0 C 41.3 0 44.6 0 48 0 C 48.02312851 7.54498233 48.04091769 15.08996101 48.05181217 22.63497066 C 48.05703989 26.13808885 48.0641355 29.64118285 48.07543945 33.14428711 C 48.08834206 37.16780841 48.09322912 41.19130414 48.09765625 45.21484375 C 48.10281754 46.47836166 48.10797882 47.74187958 48.11329651 49.04368591 C 48.11337204 50.204814 48.11344757 51.36594208 48.11352539 52.56225586 C 48.115746 53.59039902 48.11796661 54.61854218 48.12025452 55.67784119 C 48 58 48 58 47 59 C 45.1875 59.1328125 45.1875 59.1328125 43 59.125 C 42.278125 59.12757813 41.55625 59.13015625 40.8125 59.1328125 C 39 59 39 59 38 58 C 37.95919217 56.00041636 37.95745644 53.99954746 38 52 C 37.46890625 52.40992188 36.9378125 52.81984375 36.390625 53.2421875 C 35.68421875 53.78101563 34.9778125 54.31984375 34.25 54.875 C 33.55390625 55.40867187 32.8578125 55.94234375 32.140625 56.4921875 C 25.76933688 60.97999263 19.64494869 60.68865558 12 60 C 7.64127088 58.78072402 4.99005919 56.37657433 2.625 52.5625 C -0.22633861 46.31148842 -0.13490141 40.64575228 -0.09765625 33.88671875 C -0.0962413 32.91716751 -0.09482635 31.94761627 -0.09336853 30.94868469 C -0.08778513 27.86159133 -0.07523564 24.77457133 -0.0625 21.6875 C -0.05748286 19.59049584 -0.05292032 17.49349054 -0.04882812 15.39648438 C -0.03782112 10.26429479 -0.02056788 5.13215982 0 0 Z" stroke-linecap="round" />
</g>
<g transform="matrix(1 0 0 1 569.52 611)"  >
<path style="stroke: none; stroke-width: 1; stroke-dasharray: none; stroke-linecap: butt; stroke-dashoffset: 0; stroke-linejoin: miter; stroke-miterlimit: 4; fill: rgb(0,0,0); fill-opacity: 0; fill-rule: nonzero; opacity: 1;" vector-effect="non-scaling-stroke"  transform=" translate(6.79, -21.37)" d="M 0 0 C 4.75383448 2.79637322 6.54417603 5.94967302 8.26953125 11.11328125 C 10.07573888 18.51488954 10.7861118 27.48472073 7.5 34.5625 C 4.56167004 39.33211306 0.57313708 42.33624655 -4.8125 43.875 C -8.28208279 44.38901226 -10.65812928 44.58519927 -13.7109375 42.70703125 C -18.17457197 39.04383756 -21.21112112 35.55386954 -22.5 29.8125 C -24.03999591 10.40855155 -24.03999591 10.40855155 -18.37109375 2.98828125 C -12.73525381 -2.6214063 -7.24658941 -2.13833786 0 0 Z" stroke-linecap="round" />
</g>
<g transform="matrix(1 0 0 1 614 600)"  >
<path style="stroke: none; stroke-width: 1; stroke-dasharray: none; stroke-linecap: butt; stroke-dashoffset: 0; stroke-linejoin: miter; stroke-miterlimit: 4; fill: rgb(144,142,169); fill-rule: nonzero; opacity: 1;" vector-effect="non-scaling-stroke"  transform=" translate(-2.47, -40.63)" d="M 0 0 C 0.8146875 0.00257813 1.629375 0.00515625 2.46875 0.0078125 C 3.2834375 0.00523437 4.098125 0.00265625 4.9375 0 C 6.96875 0.1328125 6.96875 0.1328125 7.96875 1.1328125 C 8.0690688 3.59186471 8.1049318 6.02284678 8.09814453 8.48242188 C 8.09989685 9.25149368 8.10164917 10.02056549 8.10345459 10.8129425 C 8.1078734 13.36750513 8.10493502 15.92199911 8.1015625 18.4765625 C 8.10223553 20.24393731 8.10320555 22.01131203 8.10446167 23.77868652 C 8.10593868 27.48772053 8.10378398 31.1967305 8.09912109 34.90576172 C 8.0934238 39.67103743 8.09670279 44.43625682 8.10269356 49.20153046 C 8.10629908 52.85252307 8.10516062 56.50350223 8.10256577 60.15449524 C 8.10189647 61.91205349 8.102725 63.66961295 8.10504532 65.4271698 C 8.10757171 67.87921404 8.10373146 70.33116581 8.09814453 72.78320312 C 8.10016876 73.51674515 8.10219299 74.25028717 8.10427856 75.00605774 C 8.08301264 80.01854986 8.08301264 80.01854986 6.96875 81.1328125 C 5.47136876 81.2307182 3.96932108 81.26256114 2.46875 81.2578125 C 1.6540625 81.26039063 0.839375 81.26296875 0 81.265625 C -2.03125 81.1328125 -2.03125 81.1328125 -3.03125 80.1328125 C -3.1315688 77.67376029 -3.1674318 75.24277822 -3.16064453 72.78320312 C -3.16239685 72.01413132 -3.16414917 71.24505951 -3.16595459 70.4526825 C -3.1703734 67.89811987 -3.16743502 65.34362589 -3.1640625 62.7890625 C -3.16473553 61.02168769 -3.16570555 59.25431297 -3.16696167 57.48693848 C -3.16843868 53.77790447 -3.16628398 50.0688945 -3.16162109 46.35986328 C -3.1559238 41.59458757 -3.15920279 36.82936818 -3.16519356 32.06409454 C -3.16879908 28.41310193 -3.16766062 24.76212277 -3.16506577 21.11112976 C -3.16439647 19.35357151 -3.165225 17.59601205 -3.16754532 15.8384552 C -3.17007171 13.38641096 -3.16623146 10.93445919 -3.16064453 8.48242188 C -3.16266876 7.74887985 -3.16469299 7.01533783 -3.16677856 6.25956726 C -3.14109316 0.20537917 -3.14109316 0.20537917 0 0 Z" stroke-linecap="round" />
</g>
<g transform="matrix(1 0 0 1 538.9 466.57)"  >
<path style="stroke: none; stroke-width: 1; stroke-dasharray: none; stroke-linecap: butt; stroke-dashoffset: 0; stroke-linejoin: miter; stroke-miterlimit: 4; fill: rgb(239,239,243); fill-rule: nonzero; opacity: 1;" vector-effect="non-scaling-stroke"  transform=" translate(3.09, -21.82)" d="M 0 0 C 0.7528125 0.08765625 1.505625 0.1753125 2.28125 0.265625 C 4.6101584 0.77404866 6.42229716 1.59781933 8.5 2.75 C 8.17 3.74 7.84 4.73 7.5 5.75 C 6.84 5.42 6.18 5.09 5.5 4.75 C 0.64200183 4.16762996 -4.34473962 3.61506872 -8.77734375 5.94921875 C -12.71019671 9.25015454 -15.24050763 12.33031789 -15.80078125 17.5546875 C -15.91892641 25.62031018 -15.91892641 25.62031018 -12.5 32.75 C -8.88716488 36.36283512 -5.7878401 38.6473792 -0.5390625 38.8828125 C 0.58757812 38.88023438 1.71421875 38.87765625 2.875 38.875 C 3.99648437 38.87757812 5.11796875 38.88015625 6.2734375 38.8828125 C 9.14264622 38.76470948 11.71208229 38.40782328 14.5 37.75 C 14.5 38.74 14.5 39.73 14.5 40.75 C 7.69423031 43.34267417 2.27097389 44.91557375 -4.9375 42.6875 C -10.9453373 39.8259793 -16.76172239 34.87085583 -19.5 28.75 C -21.20647278 22.85491222 -21.25705903 17.68795123 -18.4375 12.1875 C -14.49665243 5.62688445 -8.1889741 -1.06568841 0 0 Z" stroke-linecap="round" />
</g>
<g transform="matrix(1 0 0 1 572.09 485.5)"  >
<path style="stroke: none; stroke-width: 1; stroke-dasharray: none; stroke-linecap: butt; stroke-dashoffset: 0; stroke-linejoin: miter; stroke-miterlimit: 4; fill: rgb(148,146,172); fill-rule: nonzero; opacity: 1;" vector-effect="non-scaling-stroke"  transform=" translate(21.41, -24)" d="M 0 0 C 0.33 0 0.66 0 1 0 C 1.97898991 8.48457925 -1.20696817 15.03699897 -6.33447266 21.74609375 C -15.22400985 32.56865386 -27.25336434 43.93366627 -41 48 C -41.99 48 -42.98 48 -44 48 C -43.73046875 46.0703125 -43.73046875 46.0703125 -43 44 C -40.95395441 43.3757827 -38.90680754 42.75503371 -36.85546875 42.1484375 C -24.45705152 37.16193317 -10.78520003 25.02533782 -4.8515625 13.13671875 C -3.52986816 9.82035727 -2.7803617 6.48161372 -2 3 C -1.34 2.01 -0.68 1.02 0 0 Z" stroke-linecap="round" />
</g>
<g transform="matrix(1 0 0 1 402 607)"  >
<path style="stroke: none; stroke-width: 1; stroke-dasharray: none; stroke-linecap: butt; stroke-dashoffset: 0; stroke-linejoin: miter; stroke-miterlimit: 4; fill: rgb(193,192,208); fill-rule: nonzero; opacity: 1;" vector-effect="non-scaling-stroke"  transform=" translate(-1.5, -32.5)" d="M 0 0 C 0.99 0.99 1.98 1.98 3 3 C 3 3.66 3 4.32 3 5 C 2.34 5 1.68 5 1 5 C 1 24.8 1 44.6 1 65 C 0.67 65 0.34 65 0 65 C 0 43.55 0 22.1 0 0 Z" stroke-linecap="round" />
</g>
<g transform="matrix(1 0 0 1 592.04 468.5)"  >
<path style="stroke: none; stroke-width: 1; stroke-dasharray: none; stroke-linecap: butt; stroke-dashoffset: 0; stroke-linejoin: miter; stroke-miterlimit: 4; fill: rgb(157,156,179); fill-rule: nonzero; opacity: 1;" vector-effect="non-scaling-stroke"  transform=" translate(1.46, -7)" d="M 0 0 C 0.33 0 0.66 0 1 0 C 1.29341888 5.67276511 1.00559652 8.99067246 -2 14 C -2.66 14 -3.32 14 -4 14 C -3.71715982 12.22773547 -3.42339502 10.457212 -3.125 8.6875 C -2.96257812 7.70136719 -2.80015625 6.71523437 -2.6328125 5.69921875 C -2 3 -2 3 0 0 Z" stroke-linecap="round" />
</g>
<g transform="matrix(1 0 0 1 555.56 464)"  >
<path style="stroke: none; stroke-width: 1; stroke-dasharray: none; stroke-linecap: butt; stroke-dashoffset: 0; stroke-linejoin: miter; stroke-miterlimit: 4; fill: rgb(156,155,179); fill-rule: nonzero; opacity: 1;" vector-effect="non-scaling-stroke"  transform=" translate(-1.06, -7.5)" d="M 0 0 C 1.5078125 1.21875 1.5078125 1.21875 3 3 C 3.1796875 5.15625 3.1796875 5.15625 2.875 7.5 C 2.78992188 8.2734375 2.70484375 9.046875 2.6171875 9.84375 C 1.9064582 12.32680428 0.95113134 13.35472168 -1 15 C -0.83628906 14.45859375 -0.67257813 13.9171875 -0.50390625 13.359375 C 0.08590587 10.59777407 0.09609308 8.07181861 0.0625 5.25 C 0.05347656 4.26515625 0.04445312 3.2803125 0.03515625 2.265625 C 0.02355469 1.51796875 0.01195312 0.7703125 0 0 Z" stroke-linecap="round" />
</g>
<g transform="matrix(1 0 0 1 583 504.5)"  >
<path style="stroke: none; stroke-width: 1; stroke-dasharray: none; stroke-linecap: butt; stroke-dashoffset: 0; stroke-linejoin: miter; stroke-miterlimit: 4; fill: rgb(168,167,188); fill-rule: nonzero; opacity: 1;" vector-effect="non-scaling-stroke"  transform=" translate(3.5, -5)" d="M 0 0 C 0.66 0.33 1.32 0.66 2 1 C -0.97 3.97 -3.94 6.94 -7 10 C -7.66 9.34 -8.32 8.68 -9 8 C -6.03 5.36 -3.06 2.72 0 0 Z" stroke-linecap="round" />
</g>
<g transform="matrix(1 0 0 1 402 580.5)"  >
<path style="stroke: none; stroke-width: 1; stroke-dasharray: none; stroke-linecap: butt; stroke-dashoffset: 0; stroke-linejoin: miter; stroke-miterlimit: 4; fill: rgb(214,213,223); fill-rule: nonzero; opacity: 1;" vector-effect="non-scaling-stroke"  transform=" translate(-1.5, -6)" d="M 0 0 C 0.99 0.99 1.98 1.98 3 3 C 3 3.66 3 4.32 3 5 C 2.34 5 1.68 5 1 5 C 1 7.31 1 9.62 1 12 C 0.67 12 0.34 12 0 12 C 0 8.04 0 4.08 0 0 Z" stroke-linecap="round" />
</g>
</svg>