<!-- Generated by IcoMoon.io -->
<svg version="1.1" xmlns="http://www.w3.org/2000/svg" width="1024" height="1024" viewBox="0 0 1024 1024">
<g id="icomoon-ignore">
</g>
<path fill="#950000" d="M550.63 65.076c20.095 9.998 35.282 25.055 51.181 40.639 2.721 2.621 2.721 2.621 5.501 5.297 102.822 99.093 102.822 99.093 112.683 159.234-2.98 43.178-38.759 78.472-68.974 106.099-33.384 28.766-75.484 57.101-121.379 54.421-48.067-9.445-92.728-45.936-120.764-84.725-18.19-29.081-26.011-56.63-19.947-90.641 12.9-50.247 49.547-91.961 93.388-118.058 26.015-13.412 48.85-13.315 76.663-5.49 42.641 15.324 76.444 51.411 97.095 91.164 10.987 25.492 13.156 49.22 3.955 75.784-15.539 35.182-46.633 63.929-82.308 77.982-28.050 7.807-56.141 6.661-82.664-5.49-27.179-15.436-48.386-37.803-59.722-67.217-7.966-30.682-3.077-55.715 12.151-83.187 14.349-20.803 35.041-40.591 59.433-48.397 29.792-3.737 56.745 1.149 80.974 19.484 21.915 20.377 33.651 43.619 35.586 73.575-1.32 20.303-10.305 35.523-23.424 50.607-22.82 19.398-37.673 22.801-67.714 22.501-20.603-1.768-32.495-10.413-46.077-25.796-14.075-19.458-13.174-39.79-10.984-63.043 5.712-12.081 5.712-12.081 14.060-21.089 2.899-3.336 5.798-6.669 8.785-10.105 13.304-10.546 27.961-9.286 44.275-9.115 14.346 2.317 23.554 7.684 33.459 18.26 10.802 16.299 13.538 27.327 10.791 46.722-2.81 8.096-6.528 11.962-12.959 17.504 0.578-1.813 1.16-3.625 1.757-5.49 3.11-15.165 3.848-28.18-2.198-42.615-9.942-12.262-19.091-21.126-35.338-23.135-15.399 0.545-25.485 3.803-36.491 14.787-9.897 13.334-11.039 25.051-9.927 41.354 2.71 16.084 9.112 23.187 21.129 33.774 15.221 7.61 26.79 8.837 43.493 5.931 15.083-5.698 26.953-14.005 35.145-28.117 5.071-15.213 6.58-30.126 1.112-45.347-9.994-18.953-23.513-31.453-43.289-40.105-17.979-4.122-29.47-4.545-45.691 4.611-18.019 12.107-31.776 28.547-38.663 49.206-1.516 26.779 4.415 45.721 21.089 66.78 17.2 15.184 30.33 23.672 53.379 25.481 33.74-2.213 58.81-16.926 81.771-41.491 13.426-19.005 11.547-42.659 8.952-64.83-7.755-31.186-38.103-60.849-64.144-77.982-20.914-10.087-43.326-10.012-65.901-6.372-12.526 5.141-21.63 12.055-31.631 21.089-2.409 2.039-4.819 4.078-7.303 6.179-25.9 23.628-45.725 53.828-49.769 88.966-1.157 32.061 8.93 57.683 30.052 81.689 5.412 5.571 10.898 11.069 16.474 16.474 2.076 2.065 4.152 4.133 6.287 6.261 22.234 20.651 45.843 33.37 76.525 34.159 55.548-2.721 96.773-37.97 134.094-76.663 10.824-12.73 18.735-25.9 25.604-41.076 1.16-2.321 2.321-4.641 3.514-7.028 3.347-29.518-2.736-48.397-20.499-71.718-20.010-24.695-41.351-47.541-63.855-69.968-3.314-3.37-6.628-6.739-9.938-10.112-36.065-37.325-36.065-37.325-83.42-53.591-2.832-0.211-5.664-0.426-8.581-0.645-31.238 6.476-54.614 34.293-75.992 56.223-2.836 2.854-5.672 5.709-8.596 8.648-24.529 24.847-47.445 50.796-69.167 78.119-1.646 2.013-3.288 4.029-4.982 6.102-13.363 16.829-22.508 32.914-25.77 54.525 8.626 63.625 79.261 118.781 122.135 162.337 2.617 2.691 5.23 5.382 7.925 8.155 18.079 18.186 36.057 35.887 61.679 41.751 45.573-0.189 73.26-27.998 105.862-56.59 6.991-6.124 14.016-12.203 21.052-18.279 12.715-10.987 25.407-22.004 38.085-33.032 2.321 1.16 4.641 2.321 7.028 3.514-5.104 5.293-10.235 10.561-15.376 15.817-2.854 2.936-5.709 5.872-8.648 8.897-7.607 6.921-7.607 6.921-14.635 6.921-0.801 1.939-1.605 3.877-2.432 5.875-20.028 35.635-67.666 73.994-106.525 85.507-28.124 5.319-50.618-5.79-73.808-21.089-14.301-11.458-27.342-24.254-40.405-37.080-7.447-7.184-15.261-13.916-23.076-20.692-42.515-38.237-103.059-93.095-106.978-153.329 5.824-45.866 40.454-81.267 70.746-113.817 7.069-7.618 13.89-15.354 20.636-23.257 92.999-106.255 92.999-106.255 154.426-82.594z"></path>
<path fill="#a60000" d="M652.418 675.16c6.965 4.289 13.3 8.841 19.661 13.975 2.899 2.102 5.798 4.204 8.785 6.372 1.739 1.379 3.481 2.754 5.271 4.174 0-6.958 0-13.919 0-21.089 10.439 0 20.877 0 31.631 0 0.408 29.181 0.719 58.358 0.912 87.539 0.093 13.552 0.215 27.105 0.415 40.657 0.193 13.104 0.297 26.204 0.341 39.312 0.033 4.975 0.096 9.949 0.189 14.92 0.608 33.047-1.553 61.294-24.503 86.812-20.51 18.297-39.894 24.31-66.539 23.795-2.65-0.037-5.305-0.070-8.037-0.108-20.948-0.586-39.634-1.549-55.696-16.777-12.552-14.416-20.344-24.94-19.302-44.183 5.123-0.189 10.25-0.326 15.376-0.441 2.854-0.082 5.709-0.163 8.648-0.248 7.607 0.686 7.607 0.686 14.635 7.714 0 3.481 0 6.958 0 10.542 2.321 0 4.641 0 7.028 0 0 2.321 0 4.641 0 7.028 22.145 6.569 46.837 6.483 68.756-0.441 11.132-8.563 14.72-14.268 19.113-27.679 0.793-11.777 0.63-23.365 0-35.145-3.188 2.246-6.38 4.493-9.664 6.81-20.636 13.097-41.44 13.182-65.216 9.516-27.227-7.017-41.729-25.585-56.523-48.464-15.376-30.804-13.916-72.6-6.743-105.647 8.748-23.965 23.379-43.919 45.443-57.060 20.562-9.060 45.161-10.761 66.009-1.894z"></path>
<path fill="#7f0000" d="M0.791 601.244c18.557 0 37.114 0 56.234 0 22.216 61.142 43.423 122.536 63.796 184.311 0.879 2.654 1.753 5.308 2.658 8.040 1.653 5.004 3.299 10.009 4.938 15.013 4.126 12.54 4.126 12.54 9.445 24.603 1.008-3.066 2.020-6.131 3.058-9.29 3.785-11.473 7.577-22.942 11.377-34.408 1.635-4.945 3.269-9.89 4.897-14.839 2.354-7.151 4.723-14.294 7.095-21.437 1.416-4.289 2.836-8.578 4.296-12.996 4.489-12.659 9.612-24.766 14.969-37.077 2.313-6.991 4.511-14.023 6.591-21.089 5.405-17.949 11.028-35.805 16.915-53.598 0.753-2.306 1.509-4.611 2.283-6.988 5.427-16.318 5.427-16.318 9.36-20.251 8.826-0.352 17.534-0.489 26.36-0.441 2.469-0.015 4.938-0.026 7.484-0.041 18.434 0.037 18.434 0.037 22.393 3.996 0.352 8.645 0.478 17.185 0.456 25.833 0.007 4.055 0.007 4.055 0.019 8.192 0.015 8.978 0.004 17.956-0.007 26.934 0.004 6.213 0.007 12.422 0.011 18.635 0.004 13.037-0.004 26.071-0.019 39.108-0.019 16.748-0.007 33.496 0.011 50.247 0.011 12.833 0.007 25.663 0 38.496-0.004 6.176 0 12.355 0.007 18.531 0.007 8.619-0.004 17.237-0.026 25.856 0.007 2.58 0.015 5.156 0.022 7.814-0.074 17.619-0.074 17.619-3.992 21.533-5.264 0.345-10.542 0.456-15.817 0.441-2.862 0.007-5.727 0.019-8.678 0.026-7.14-0.467-7.14-0.467-10.654-3.981-0.434-7.006-0.626-14.027-0.723-21.048-0.104-6.754-0.104-6.754-0.211-13.645-0.059-4.952-0.119-9.905-0.178-14.854-0.070-5.038-0.145-10.075-0.222-15.113-0.193-13.286-0.367-26.567-0.538-39.853-0.178-13.545-0.371-27.090-0.567-40.639-0.378-26.597-0.734-53.19-1.079-79.788-0.893 3.266-1.787 6.532-2.706 9.897-6.124 21.993-12.452 43.093-21.897 63.911-3.51 9.627-6.698 19.354-9.886 29.092-0.897 2.706-1.794 5.412-2.717 8.203-2.839 8.581-5.664 17.163-8.489 25.748-2.825 8.57-5.653 17.144-8.489 25.711-1.753 5.308-3.503 10.617-5.245 15.925-5.557 16.826-11.588 33.407-17.897 49.962-5.631 0.474-11.273 0.816-16.915 1.097-3.14 0.204-6.28 0.408-9.516 0.619-8.719-1.716-8.719-1.716-14.038-9.056-5.883-11.521-9.538-22.716-13.204-35.127-9.297-30.816-19.595-61.246-30.059-91.683-3.084-8.978-6.157-17.96-9.23-26.946-1.979-5.772-3.959-11.547-5.938-17.319-0.908-2.654-1.816-5.308-2.751-8.044-1.286-3.737-1.286-3.737-2.599-7.547-0.741-2.165-1.486-4.33-2.25-6.558-2.966-8.2-6.254-16.281-9.49-24.38-1.16 74.231-2.321 148.462-3.514 224.939-10.439 0-20.877 0-31.631 0-6.046-6.046-3.937-13.738-3.952-21.797 0.011-2.617 0.026-5.234 0.037-7.929 0-2.743 0-5.486 0-8.311 0.004-9.108 0.030-18.219 0.056-27.327 0.007-6.298 0.011-12.6 0.015-18.898 0.015-16.611 0.048-33.225 0.085-49.836 0.037-16.937 0.052-33.877 0.070-50.814 0.037-33.258 0.1-66.517 0.171-99.779z"></path>
<path fill="#800" d="M866.425 678.251c4.834 0.059 4.834 0.059 9.76 0.122 3.229 0.033 6.461 0.063 9.79 0.096 2.495 0.041 4.993 0.082 7.566 0.122 0.011 1.994 0.026 3.989 0.037 6.042 0.148 20.755 0.389 41.506 0.689 62.261 0.1 7.744 0.174 15.491 0.222 23.239 0.074 11.136 0.241 22.264 0.419 33.396 0.004 3.462 0.007 6.928 0.015 10.498 0.145 18.998 0.145 18.998 8.852 35.349 15.139 10.22 28.058 10.554 45.995 8.467 17.43-7.892 24.258-17.623 32.209-34.196 4.964-13.475 5.060-26.475 5.078-40.709 0.059-3.003 0.115-6.005 0.178-9.1 0.171-9.49 0.245-18.976 0.319-28.465 0.1-6.476 0.204-12.952 0.315-19.428 0.259-15.784 0.434-31.568 0.563-47.352 11.599 0 23.198 0 35.145 0 0.082 26.519 0.145 53.038 0.182 79.554 0.019 12.311 0.044 24.625 0.082 36.936 0.044 14.142 0.063 28.284 0.078 42.426 0.019 4.441 0.037 8.882 0.056 13.456 0 4.081 0 8.163 0 12.366 0.007 3.614 0.015 7.228 0.022 10.95-0.423 8.163-0.423 8.163-3.937 11.677-9.386 0.497-18.712 0.148-28.117 0 0-9.278 0-18.557 0-28.117-1.705 1.694-3.407 3.388-5.164 5.134-23.717 22.345-42.073 27.379-74.138 26.497-18.138-1.809-29.14-5.253-42.422-17.712-15.55-22.304-16.848-41.921-16.503-68.37 0.007-3.466 0.015-6.936 0.019-10.509 0.022-7.284 0.070-14.568 0.145-21.852 0.111-11.199 0.145-22.397 0.163-33.596 0.033-7.084 0.070-14.168 0.111-21.252 0.015-3.366 0.030-6.728 0.044-10.194 0.033-3.088 0.067-6.172 0.104-9.353 0.022-2.728 0.048-5.457 0.074-8.266 0.76-9.627 2.398-9.708 12.040-10.12z"></path>
<path fill="#6b0000" d="M327.622 678.603c11.599 0 23.198 0 35.145 0 0.052 4.467 0.104 8.937 0.156 13.538 0.204 16.625 0.474 33.251 0.767 49.873 0.115 7.188 0.215 14.372 0.297 21.559 0.119 10.35 0.304 20.696 0.497 31.042 0.022 3.195 0.044 6.394 0.067 9.686 0.415 18.079 2.258 30.849 12.274 46.522 10.316 8.407 21.971 8.496 35.053 8.155 14.731-2.328 24.488-11.195 34.363-21.774 11.239-19.109 12.559-37.507 12.878-59.062 0.067-2.858 0.137-5.712 0.208-8.656 0.208-9.060 0.374-18.116 0.534-27.175 0.133-6.168 0.271-12.337 0.411-18.509 0.337-15.065 0.634-30.13 0.904-45.198 11.599 0 23.198 0 35.145 0 0.082 26.519 0.145 53.038 0.182 79.554 0.019 12.311 0.044 24.625 0.082 36.936 0.044 14.142 0.063 28.284 0.078 42.426 0.019 4.441 0.037 8.882 0.056 13.456 0 4.081 0 8.163 0 12.366 0.007 3.614 0.015 7.228 0.022 10.95-0.423 8.163-0.423 8.163-3.937 11.677-6.372 0.467-6.372 0.467-14.060 0.441-2.536 0.007-5.075 0.019-7.688 0.026-6.372-0.467-6.372-0.467-9.886-3.981-0.145-7.028-0.148-14.060 0-21.089-1.868 1.442-3.733 2.88-5.657 4.367-2.484 1.894-4.967 3.788-7.525 5.738-2.447 1.876-4.893 3.751-7.414 5.683-22.393 15.773-43.919 14.75-70.787 12.329-15.321-4.285-24.636-12.737-32.951-26.141-10.020-21.971-9.701-41.884-9.568-65.638 0.004-3.407 0.011-6.817 0.015-10.327 0.019-10.85 0.063-21.7 0.108-32.55 0.019-7.369 0.033-14.742 0.048-22.112 0.037-18.038 0.1-36.076 0.171-54.113z"></path>
<path fill="#a00" d="M777.645 600.825c2.862 0.007 5.727 0.019 8.678 0.026 2.862-0.007 5.727-0.019 8.678-0.026 7.14 0.467 7.14 0.467 10.654 3.981 0.352 8.645 0.478 17.185 0.456 25.833 0.007 2.702 0.011 5.405 0.019 8.192 0.015 8.978 0.004 17.956-0.007 26.934 0.004 6.213 0.007 12.422 0.011 18.635 0.004 13.037-0.004 26.071-0.019 39.108-0.019 16.748-0.007 33.496 0.011 50.247 0.011 12.833 0.007 25.663 0 38.496-0.004 6.176 0 12.355 0.007 18.531 0.007 8.619-0.004 17.237-0.026 25.856 0.007 2.58 0.015 5.156 0.022 7.814-0.074 17.619-0.074 17.619-3.992 21.533-5.264 0.345-10.542 0.456-15.817 0.441-2.862 0.007-5.727 0.019-8.678 0.026-7.14-0.467-7.14-0.467-10.654-3.981-0.352-8.645-0.478-17.185-0.456-25.833-0.007-2.702-0.011-5.405-0.019-8.192-0.015-8.978-0.004-17.956 0.007-26.934-0.004-6.213-0.007-12.422-0.011-18.635-0.004-13.037 0.004-26.071 0.019-39.108 0.019-16.748 0.007-33.496-0.011-50.247-0.011-12.833-0.007-25.663 0-38.496 0.004-6.176 0-12.355-0.007-18.531-0.007-8.619 0.004-17.237 0.026-25.856-0.007-2.58-0.015-5.156-0.022-7.814 0.089-21.278 0.089-21.278 11.132-22.001z"></path>
<path fill="#efeff3" d="M533.233 197.969c2.647 0.308 5.293 0.615 8.018 0.934 8.185 1.787 14.553 4.682 21.856 8.733-1.16 3.481-2.321 6.958-3.514 10.542-2.321-1.16-4.641-2.321-7.028-3.514-17.074-2.046-34.6-3.989-50.18 4.215-13.823 11.603-22.716 22.427-24.684 40.791-0.415 28.347-0.415 28.347 11.603 53.405 12.7 12.7 23.591 20.729 42.040 21.556 3.959-0.007 7.918-0.019 11.999-0.026 3.94 0.007 7.885 0.019 11.944 0.026 10.083-0.415 19.117-1.668 28.914-3.981 0 3.481 0 6.958 0 10.542-23.921 9.112-42.982 14.642-68.318 6.81-21.115-10.057-41.558-27.472-51.181-48.987-5.998-20.718-6.176-38.878 3.733-58.213 13.853-23.057 36.020-46.581 64.8-42.837z"></path>
<path fill="#780000" d="M714.275 256.839c1.16 0 2.321 0 3.514 0 3.44 29.822-7.759 52.849-25.778 76.433-31.246 38.037-73.523 77.982-121.839 92.276-3.481 0-6.958 0-10.542 0 0.949-6.784 0.949-6.784 3.514-14.060 7.191-2.194 14.387-4.374 21.596-6.509 43.578-17.526 91.627-60.182 112.482-101.966 4.645-11.655 7.28-23.391 10.023-35.627 2.321-3.481 4.641-6.958 7.028-10.542z"></path>
<path fill="#c1c0d0" d="M35.936 654.001c3.481 3.481 6.958 6.958 10.542 10.542 0 2.321 0 4.641 0 7.028-2.321 0-4.641 0-7.028 0 0 69.59 0 139.183 0 210.882-1.16 0-2.321 0-3.514 0 0-75.391 0-150.782 0-228.457z"></path>
<path fill="#6e0000" d="M714.275 256.839c1.16 0 2.321 0 3.514 0 1.031 19.939 0.019 31.598-10.542 49.206-2.321 0-4.641 0-7.028 0 0.993-6.228 2.028-12.452 3.077-18.672 0.571-3.466 1.142-6.932 1.731-10.502 2.224-9.486 2.224-9.486 9.252-20.032z"></path>
<path fill="#900" d="M577.201 239.268c5.301 4.285 5.301 4.285 10.542 10.542 0.63 7.577 0.63 7.577-0.441 15.817-0.3 2.717-0.597 5.438-0.904 8.237-2.498 8.726-5.857 12.34-12.715 18.123 0.575-1.902 1.149-3.807 1.742-5.768 2.072-9.705 2.109-18.583 1.991-28.502-0.033-3.462-0.063-6.925-0.096-10.491-0.041-2.628-0.082-5.256-0.122-7.962z"></path>
<path fill="#630000" d="M689.672 390.399c2.321 1.16 4.641 2.321 7.028 3.514-10.439 10.439-20.877 20.877-31.631 31.631-2.321-2.321-4.641-4.641-7.028-7.028 10.439-9.278 20.877-18.557 31.631-28.117z"></path>
<path fill="#d6d5df" d="M35.936 654.001c3.481 3.481 6.958 6.958 10.542 10.542 0 2.321 0 4.641 0 7.028-2.321 0-4.641 0-7.028 0 0 8.118 0 16.236 0 24.603-1.16 0-2.321 0-3.514 0 0-13.919 0-27.835 0-42.177z"></path>
</svg>
